<svg xmlns="http://www.w3.org/2000/svg" xmlns:xlink="http://www.w3.org/1999/xlink" width="500" zoomAndPan="magnify" viewBox="0 0 375 374.999991" height="500" preserveAspectRatio="xMidYMid meet" version="1.0"><defs><clipPath id="e073225768"><path d="M 0 25.546875 L 375 25.546875 L 375 349.546875 L 0 349.546875 Z M 0 25.546875 " clip-rule="nonzero"/></clipPath></defs><g clip-path="url(#e073225768)"><path fill="#cdea67" d="M 340.367188 25.546875 C 340.050781 25.5 339.734375 25.457031 339.421875 25.457031 L 35.128906 25.457031 C 34.8125 25.457031 34.5 25.5 34.183594 25.546875 C 15.199219 26.535156 0.0390625 42.238281 0.0390625 61.445312 L 0.0390625 255.878906 C 0.0390625 275.71875 16.191406 291.871094 36.074219 291.871094 L 153.265625 291.871094 C 154.390625 296.59375 154.390625 301.542969 153.265625 306.265625 L 136.890625 306.265625 C 117.050781 306.265625 100.855469 322.414062 100.855469 342.300781 C 100.855469 346.257812 104.09375 349.5 108.054688 349.5 L 266.496094 349.5 C 270.457031 349.5 273.695312 346.257812 273.695312 342.300781 C 273.695312 322.460938 257.542969 306.265625 237.707031 306.265625 L 221.332031 306.265625 C 220.207031 301.542969 220.207031 296.59375 221.332031 291.871094 L 338.519531 291.871094 C 358.359375 291.871094 374.554688 275.71875 374.554688 255.878906 L 374.554688 61.445312 C 374.554688 42.238281 359.351562 26.492188 340.367188 25.546875 Z M 360.113281 255.925781 C 360.113281 267.847656 350.441406 277.519531 338.519531 277.519531 L 36.027344 277.519531 C 24.105469 277.519531 14.433594 267.847656 14.433594 255.925781 L 14.433594 241.53125 L 360.160156 241.53125 L 360.160156 255.925781 Z M 206.621094 306.355469 L 167.929688 306.355469 C 168.695312 301.585938 168.695312 296.726562 167.929688 291.960938 L 206.621094 291.960938 C 205.855469 296.683594 205.855469 301.585938 206.621094 306.355469 Z M 116.464844 335.148438 C 119.433594 326.78125 127.441406 320.75 136.84375 320.75 L 237.660156 320.75 C 247.0625 320.75 255.070312 326.78125 258.039062 335.148438 Z M 14.433594 61.445312 C 14.433594 52.402344 20.011719 44.667969 27.929688 41.425781 L 27.929688 227.089844 L 14.433594 227.089844 Z M 360.113281 227.132812 L 346.617188 227.132812 L 346.617188 41.425781 C 354.535156 44.667969 360.113281 52.402344 360.113281 61.445312 Z M 42.328125 39.851562 L 332.269531 39.851562 L 332.269531 227.132812 L 42.328125 227.132812 Z M 62.167969 55.417969 C 62.167969 51.460938 65.40625 48.21875 69.363281 48.21875 L 99.730469 48.21875 C 103.6875 48.21875 106.929688 51.460938 106.929688 55.417969 C 106.929688 59.378906 103.6875 62.617188 99.730469 62.617188 L 69.363281 62.617188 C 65.359375 62.617188 62.167969 59.378906 62.167969 55.417969 Z M 92.488281 141.839844 C 92.488281 145.796875 89.25 149.035156 85.289062 149.035156 L 69.363281 149.035156 C 65.40625 149.035156 62.167969 145.796875 62.167969 141.839844 C 62.167969 137.878906 65.40625 134.640625 69.363281 134.640625 L 85.289062 134.640625 C 89.25 134.640625 92.488281 137.835938 92.488281 141.839844 Z M 306.492188 84.210938 C 306.492188 88.167969 303.25 91.40625 299.292969 91.40625 L 280.894531 91.40625 C 276.933594 91.40625 273.695312 88.167969 273.695312 84.210938 C 273.695312 80.25 276.933594 77.011719 280.894531 77.011719 L 299.292969 77.011719 C 303.25 77.011719 306.492188 80.25 306.492188 84.210938 Z M 264.519531 55.417969 C 264.519531 51.460938 267.757812 48.21875 271.714844 48.21875 L 297.898438 48.21875 C 301.855469 48.21875 305.097656 51.460938 305.097656 55.417969 C 305.097656 59.378906 301.855469 62.617188 297.898438 62.617188 L 271.714844 62.617188 C 267.757812 62.617188 264.519531 59.378906 264.519531 55.417969 Z M 280.082031 199.464844 C 280.082031 203.425781 276.84375 206.664062 272.886719 206.664062 L 251.472656 206.664062 C 247.511719 206.664062 244.273438 203.425781 244.273438 199.464844 C 244.273438 195.507812 247.511719 192.269531 251.472656 192.269531 L 272.886719 192.269531 C 276.84375 192.269531 280.082031 195.460938 280.082031 199.464844 Z M 307.796875 141.839844 C 307.796875 145.796875 304.554688 149.035156 300.597656 149.035156 L 281.296875 149.035156 C 277.339844 149.035156 274.101562 145.796875 274.101562 141.839844 C 274.101562 137.878906 277.339844 134.640625 281.296875 134.640625 L 300.597656 134.640625 C 304.554688 134.640625 307.796875 137.835938 307.796875 141.839844 Z M 306.492188 113 C 306.492188 116.960938 303.25 120.199219 299.292969 120.199219 L 274.324219 120.199219 C 270.367188 120.199219 267.125 116.960938 267.125 113 C 267.125 109.042969 270.367188 105.804688 274.324219 105.804688 L 299.292969 105.804688 C 303.25 105.804688 306.492188 109.042969 306.492188 113 Z M 295.152344 170.628906 C 295.152344 174.589844 291.914062 177.828125 287.957031 177.828125 L 268.566406 177.828125 C 264.609375 177.828125 261.367188 174.589844 261.367188 170.628906 C 261.367188 166.671875 264.609375 163.433594 268.566406 163.433594 L 287.957031 163.433594 C 291.914062 163.433594 295.152344 166.671875 295.152344 170.628906 Z M 254.171875 87.539062 C 254.710938 86.550781 255.027344 85.425781 255.027344 84.210938 C 255.027344 80.25 251.785156 77.011719 247.828125 77.011719 L 245.894531 77.011719 C 240.71875 71.433594 234.828125 66.574219 228.347656 62.617188 L 236.265625 62.617188 C 240.226562 62.617188 243.464844 59.378906 243.464844 55.417969 C 243.464844 51.460938 240.226562 48.21875 236.265625 48.21875 L 197.039062 48.21875 C 194.878906 48.21875 192.945312 49.210938 191.640625 50.695312 C 189.433594 50.515625 187.230469 50.425781 184.980469 50.425781 C 178.636719 50.425781 172.429688 51.144531 166.492188 52.539062 C 165.367188 50.019531 162.847656 48.265625 159.921875 48.265625 L 133.742188 48.265625 C 129.78125 48.265625 126.542969 51.503906 126.542969 55.464844 C 126.542969 59.421875 129.78125 62.660156 133.742188 62.660156 L 141.660156 62.660156 C 135.179688 66.664062 129.242188 71.523438 124.113281 77.058594 L 84.570312 77.058594 C 80.609375 77.058594 77.371094 80.296875 77.371094 84.253906 C 77.371094 88.214844 80.609375 91.453125 84.570312 91.453125 L 113.40625 91.453125 C 110.707031 95.996094 108.457031 100.808594 106.703125 105.847656 L 89.5625 105.847656 C 85.605469 105.847656 82.367188 109.085938 82.367188 113.046875 C 82.367188 117.003906 85.605469 120.246094 89.5625 120.246094 L 103.015625 120.246094 C 102.339844 124.5625 101.933594 128.972656 101.933594 133.515625 C 101.933594 144.085938 103.914062 154.164062 107.558594 163.476562 L 99.011719 163.476562 C 95.050781 163.476562 91.8125 166.714844 91.8125 170.675781 C 91.8125 174.632812 95.050781 177.871094 99.011719 177.871094 L 114.847656 177.871094 C 118.175781 183.136719 122.042969 187.996094 126.453125 192.359375 C 126.183594 192.3125 125.914062 192.269531 125.597656 192.269531 L 99.011719 192.269531 C 95.050781 192.269531 91.8125 195.507812 91.8125 199.464844 C 91.8125 203.425781 95.050781 206.664062 99.011719 206.664062 L 125.597656 206.664062 C 129.558594 206.664062 132.796875 203.425781 132.796875 199.464844 C 132.796875 198.925781 132.707031 198.386719 132.617188 197.890625 C 146.921875 209.589844 165.1875 216.5625 185.070312 216.5625 C 230.914062 216.5625 268.160156 179.265625 268.160156 133.46875 C 268.070312 116.511719 262.941406 100.71875 254.171875 87.539062 Z M 219.53125 192.71875 C 209.589844 198.566406 198.070312 201.941406 185.789062 202.121094 C 185.519531 202.121094 185.25 202.164062 184.9375 202.164062 C 182.550781 202.164062 180.257812 202.03125 177.917969 201.804688 C 167.617188 200.769531 158.035156 197.351562 149.574219 192.269531 C 133.921875 182.820312 122.359375 167.347656 118.085938 149.035156 C 117.003906 144.402344 116.375 139.589844 116.285156 134.640625 C 116.285156 134.234375 116.242188 133.875 116.242188 133.46875 C 116.242188 128.925781 116.691406 124.519531 117.546875 120.199219 C 118.535156 115.207031 120.066406 110.390625 122.089844 105.804688 C 124.382812 100.628906 127.308594 95.816406 130.726562 91.363281 C 131.042969 90.957031 131.3125 90.554688 131.625 90.191406 C 132.390625 89.25 133.246094 88.347656 134.054688 87.402344 C 135.765625 85.515625 137.5625 83.714844 139.5 82.003906 C 151.601562 71.296875 167.480469 64.730469 184.890625 64.730469 C 199.375 64.730469 212.828125 69.273438 223.894531 76.96875 C 229.652344 80.972656 234.78125 85.828125 239.054688 91.363281 C 242.070312 95.277344 244.679688 99.503906 246.835938 104.003906 C 248.636719 107.78125 250.078125 111.695312 251.203125 115.835938 C 252.6875 121.460938 253.585938 127.351562 253.585938 133.46875 C 253.585938 133.875 253.539062 134.234375 253.539062 134.640625 C 253.449219 139.589844 252.820312 144.402344 251.742188 149.035156 C 250.300781 155.15625 248.097656 161.003906 245.171875 166.402344 C 242.925781 170.496094 240.269531 174.320312 237.253906 177.871094 C 232.308594 183.765625 226.277344 188.804688 219.53125 192.71875 Z M 238.425781 118.039062 C 240.898438 116.824219 242.429688 114.304688 242.429688 111.5625 C 242.429688 108.816406 240.855469 106.34375 238.425781 105.082031 L 235.996094 103.871094 L 210.714844 91.363281 L 204.683594 88.394531 L 188.175781 80.207031 C 186.148438 79.214844 183.8125 79.214844 181.785156 80.207031 L 177.917969 82.140625 L 159.25 91.363281 L 131.492188 105.082031 C 129.78125 105.9375 128.566406 107.378906 127.9375 109.132812 C 127.667969 109.898438 127.441406 110.707031 127.441406 111.5625 C 127.441406 112.957031 127.847656 114.304688 128.613281 115.429688 C 129.285156 116.511719 130.277344 117.410156 131.445312 117.996094 L 140.535156 122.492188 L 131.445312 126.992188 C 128.972656 128.207031 127.441406 130.726562 127.441406 133.46875 C 127.441406 134.324219 127.621094 135.136719 127.890625 135.898438 C 128.386719 137.292969 129.332031 138.464844 130.546875 139.363281 C 130.816406 139.589844 131.085938 139.8125 131.402344 139.949219 L 140.488281 144.449219 L 131.402344 148.945312 C 128.925781 150.160156 127.398438 152.679688 127.398438 155.378906 C 127.398438 158.125 128.972656 160.597656 131.402344 161.855469 L 135.628906 163.925781 L 163.566406 177.738281 L 181.652344 186.691406 C 182.640625 187.183594 183.765625 187.453125 184.847656 187.453125 C 185.925781 187.453125 187.050781 187.183594 188.039062 186.691406 L 205.898438 177.828125 L 235.007812 163.433594 L 238.289062 161.8125 C 240.765625 160.597656 242.292969 158.078125 242.292969 155.335938 C 242.292969 152.679688 240.808594 150.25 238.46875 148.992188 C 238.425781 148.945312 238.335938 148.902344 238.289062 148.855469 L 229.203125 144.359375 L 238.289062 139.859375 C 240.40625 138.824219 241.753906 136.800781 242.160156 134.550781 C 242.203125 134.191406 242.339844 133.785156 242.339844 133.378906 C 242.339844 130.636719 240.765625 128.164062 238.335938 126.902344 L 229.246094 122.402344 L 237.75 118.21875 Z M 218.992188 133.46875 L 213.097656 136.394531 L 204.953125 140.398438 L 196.8125 144.402344 L 184.890625 150.296875 L 181.15625 148.453125 L 173.015625 144.402344 L 164.871094 140.398438 L 156.730469 136.394531 L 153.175781 134.640625 L 150.835938 133.46875 L 156.730469 130.546875 L 162.621094 133.46875 L 164.960938 134.640625 L 170.765625 137.519531 L 178.90625 141.523438 L 181.742188 142.917969 C 182.730469 143.414062 183.855469 143.683594 184.9375 143.683594 C 185.070312 143.683594 185.207031 143.636719 185.296875 143.636719 C 186.242188 143.59375 187.230469 143.367188 188.128906 142.917969 L 190.964844 141.523438 L 199.105469 137.519531 L 207.25 133.515625 L 213.140625 130.589844 Z M 188.128906 170.628906 L 184.980469 172.203125 L 150.96875 155.378906 L 156.863281 152.457031 L 181.832031 164.78125 C 182.820312 165.277344 183.945312 165.546875 185.027344 165.546875 C 186.105469 165.546875 187.230469 165.277344 188.21875 164.78125 L 213.1875 152.457031 L 219.082031 155.378906 L 202.75 163.476562 Z M 214.445312 113.855469 L 213.097656 114.53125 L 204.953125 118.535156 L 201.492188 120.246094 L 196.8125 122.539062 L 190.917969 125.464844 L 184.890625 128.433594 L 178.863281 125.464844 L 172.96875 122.539062 L 165.589844 118.894531 L 164.871094 118.535156 L 156.730469 114.53125 L 150.835938 111.605469 L 162.308594 105.9375 L 184.847656 94.78125 L 207.203125 105.847656 L 212.917969 108.683594 L 218.902344 111.652344 Z M 214.445312 113.855469 " fill-opacity="1" fill-rule="nonzero"/></g></svg>